<svg width="120" height="120" viewBox="0 0 120 120" fill="none" xmlns="http://www.w3.org/2000/svg">
<path d="M50 55C50.9234 54.9972 51.8279 54.7388 52.6133 54.2534C53.3988 53.768 54.0345 53.0746 54.45 52.25C55.0431 51.0692 55.1446 49.7016 54.7323 48.4461C54.3201 47.1906 53.4276 46.1494 52.25 45.55L42.25 40.55C41.6609 40.1955 41.005 39.9663 40.3233 39.8768C39.6415 39.7873 38.9487 39.8393 38.288 40.0296C37.6273 40.2199 37.013 40.5445 36.4834 40.983C35.9538 41.4215 35.5203 41.9645 35.2101 42.5781C34.8998 43.1917 34.7195 43.8627 34.6803 44.5491C34.6411 45.2356 34.7439 45.9227 34.9822 46.5677C35.2206 47.2126 35.5894 47.8014 36.0657 48.2974C36.5419 48.7933 37.1153 49.1857 37.75 49.45L47.75 54.45C48.4416 54.8202 49.2156 55.0094 50 55ZM60 10C50.111 10 40.444 12.9324 32.2215 18.4265C23.9991 23.9206 17.5904 31.7295 13.806 40.8658C10.0217 50.0021 9.0315 60.0555 10.9608 69.7545C12.89 79.4536 17.6521 88.3627 24.6447 95.3553C31.6373 102.348 40.5465 107.11 50.2455 109.039C59.9446 110.969 69.9979 109.978 79.1342 106.194C88.2705 102.41 96.0794 96.001 101.573 87.7785C107.068 79.5561 110 69.8891 110 60C110 53.4339 108.707 46.9321 106.194 40.8658C103.681 34.7995 99.9983 29.2876 95.3554 24.6447C90.7124 20.0017 85.2005 16.3188 79.1342 13.806C73.0679 11.2933 66.5661 10 60 10ZM60 100C52.0888 100 44.3552 97.654 37.7772 93.2588C31.1992 88.8635 26.0723 82.6164 23.0448 75.3073C20.0173 67.9983 19.2252 59.9556 20.7686 52.1964C22.312 44.4371 26.1217 37.3098 31.7158 31.7157C37.3099 26.1216 44.4372 22.312 52.1964 20.7686C59.9557 19.2252 67.9983 20.0173 75.3074 23.0448C82.6164 26.0723 88.8635 31.1992 93.2588 37.7772C97.6541 44.3552 100 52.0887 100 60C100 70.6087 95.7858 80.7828 88.2843 88.2843C80.7828 95.7857 70.6087 100 60 100ZM41.8 76.65C40.7922 77.4964 40.1588 78.706 40.0371 80.0165C39.9154 81.3269 40.3153 82.6325 41.15 83.65C41.5698 84.1563 42.0853 84.5748 42.667 84.8816C43.2487 85.1883 43.8853 85.3773 44.5402 85.4377C45.195 85.4981 45.8554 85.4286 46.4834 85.2334C47.1114 85.0382 47.6948 84.721 48.2 84.3C51.5424 81.6052 55.7066 80.1356 60 80.1356C64.2935 80.1356 68.4576 81.6052 71.8 84.3C72.6996 85.0454 73.8318 85.4523 75 85.45C76.0179 85.44 77.0085 85.1195 77.8393 84.5314C78.6702 83.9433 79.3018 83.1156 79.6497 82.159C79.9975 81.2023 80.0451 80.1623 79.7861 79.1778C79.527 78.1934 78.9737 77.3115 78.2 76.65C73.0406 72.5028 66.6196 70.2421 60 70.2421C53.3805 70.2421 46.9594 72.5028 41.8 76.65ZM77.75 40.55L67.75 45.55C66.5724 46.1494 65.6799 47.1906 65.2677 48.4461C64.8555 49.7016 64.957 51.0692 65.55 52.25C65.9655 53.0746 66.6012 53.768 67.3867 54.2534C68.1722 54.7388 69.0767 54.9972 70 55C70.7844 55.0094 71.5584 54.8202 72.25 54.45L82.25 49.45C83.3318 48.7991 84.1272 47.7631 84.4767 46.5499C84.8262 45.3368 84.7038 44.0363 84.1342 42.9097C83.5645 41.783 82.5898 40.9136 81.4056 40.4759C80.2214 40.0382 78.9155 40.0647 77.75 40.55Z" fill="#585858"/>
</svg>
