<svg width="121" height="120" viewBox="0 0 121 120" fill="none" xmlns="http://www.w3.org/2000/svg">
<path d="M60.55 22.5C60.55 19.1848 59.233 16.0054 56.8888 13.6612C54.5446 11.317 51.3652 10 48.05 10C44.7348 10 41.5553 11.317 39.2111 13.6612C36.8669 16.0054 35.55 19.1848 35.55 22.5C32.89 22.4992 30.2776 23.2058 27.9807 24.5474C25.6837 25.8889 23.7848 27.8171 22.4787 30.1344C21.1725 32.4516 20.506 35.0745 20.5475 37.7342C20.589 40.3939 21.3371 42.9947 22.715 45.27C19.2927 45.9313 16.2074 47.7634 13.9887 50.4517C11.7701 53.14 10.5566 56.5169 10.5566 60.0025C10.5566 63.4881 11.7701 66.865 13.9887 69.5533C16.2074 72.2416 19.2927 74.0737 22.715 74.735C21.3384 77.0102 20.5914 79.6105 20.5505 82.2694C20.5096 84.9284 21.1763 87.5504 22.4824 89.8669C23.7884 92.1833 25.6868 94.1109 27.983 95.4522C30.2792 96.7935 32.8907 97.5002 35.55 97.5C35.5506 100.815 36.8682 103.994 39.2129 106.338C41.5576 108.682 44.7373 109.998 48.0525 109.998C51.3677 109.997 54.5468 108.679 56.8906 106.335C59.2343 103.99 60.5506 100.81 60.55 97.495" stroke="#585858" stroke-width="7.5" stroke-linecap="round" stroke-linejoin="round"/>
<path d="M60.5498 97.5001C60.5498 100.815 61.8668 103.995 64.211 106.339C66.5552 108.683 69.7346 110 73.0498 110C76.365 110 79.5444 108.683 81.8886 106.339C84.2328 103.995 85.5498 100.815 85.5498 97.5001C88.2091 97.5003 90.8206 96.7935 93.1168 95.4523C95.413 94.111 97.3114 92.1834 98.6174 89.8669C99.9234 87.5505 100.59 84.9284 100.549 82.2695C100.508 79.6106 99.7614 77.0103 98.3848 74.7351C101.807 74.0738 104.892 72.2417 107.111 69.5534C109.33 66.865 110.543 63.4882 110.543 60.0026C110.543 56.517 109.33 53.1401 107.111 50.4517C104.892 47.7634 101.807 45.9313 98.3848 45.2701C99.7627 42.9947 100.511 40.3939 100.552 37.7342C100.594 35.0746 99.9273 32.4517 98.6211 30.1344C97.315 27.8172 95.4161 25.889 93.1191 24.5474C90.8222 23.2059 88.2098 22.4993 85.5498 22.5001C85.5501 20.8585 85.2271 19.233 84.5993 17.7163C83.9714 16.1996 83.0509 14.8215 81.8904 13.6605C80.7299 12.4995 79.3521 11.5785 77.8357 10.95C76.3192 10.3215 74.6938 9.99789 73.0523 9.99756C69.7371 9.9969 66.5574 11.3132 64.2127 13.657C61.8681 16.0007 60.5505 19.1799 60.5498 22.4951" stroke="#585858" stroke-width="7.5" stroke-linecap="round" stroke-linejoin="round"/>
<path d="M52.9848 35.005V44.9M35.5498 52.505H45.8098M75.6648 52.505H85.9248M75.6648 67.375H85.9248M35.5498 67.375H45.8098M52.9848 75.1V85M68.1098 75.1V85M68.0648 35V44.9M50.8148 74.845H70.6698C71.9959 74.845 73.2677 74.3182 74.2053 73.3805C75.143 72.4428 75.6698 71.1711 75.6698 69.845V49.9C75.6698 48.5739 75.143 47.3021 74.2053 46.3645C73.2677 45.4268 71.9959 44.9 70.6698 44.9H50.8148C49.4887 44.9 48.2169 45.4268 47.2793 46.3645C46.3416 47.3021 45.8148 48.5739 45.8148 49.9V69.845C45.8148 71.1711 46.3416 72.4428 47.2793 73.3805C48.2169 74.3182 49.4887 74.845 50.8148 74.845Z" stroke="#585858" stroke-width="7.5" stroke-linecap="round" stroke-linejoin="round"/>
</svg>
