<svg width="120" height="120" viewBox="0 0 120 120" fill="none" xmlns="http://www.w3.org/2000/svg">
<path fill-rule="evenodd" clip-rule="evenodd" d="M60 10C87.615 10 110 32.385 110 60C110 87.615 87.615 110 60 110C32.385 110 10 87.615 10 60C10 32.385 32.385 10 60 10ZM60 20C49.3913 20 39.2172 24.2143 31.7157 31.7157C24.2143 39.2172 20 49.3913 20 60C20 70.6087 24.2143 80.7828 31.7157 88.2843C39.2172 95.7857 49.3913 100 60 100C70.6087 100 80.7828 95.7857 88.2843 88.2843C95.7857 80.7828 100 70.6087 100 60C100 49.3913 95.7857 39.2172 88.2843 31.7157C80.7828 24.2143 70.6087 20 60 20ZM65 80C66.3261 80 67.5979 80.5268 68.5355 81.4645C69.4732 82.4021 70 83.6739 70 85C70 86.3261 69.4732 87.5979 68.5355 88.5355C67.5979 89.4732 66.3261 90 65 90H55C53.6739 90 52.4021 89.4732 51.4645 88.5355C50.5268 87.5979 50 86.3261 50 85C50 83.6739 50.5268 82.4021 51.4645 81.4645C52.4021 80.5268 53.6739 80 55 80H65ZM42.5 55C43.4849 55 44.4602 55.194 45.3701 55.5709C46.2801 55.9478 47.1069 56.5003 47.8033 57.1967C48.4997 57.8931 49.0522 58.7199 49.4291 59.6299C49.806 60.5398 50 61.5151 50 62.5C50 63.4849 49.806 64.4602 49.4291 65.3701C49.0522 66.2801 48.4997 67.1069 47.8033 67.8033C47.1069 68.4997 46.2801 69.0522 45.3701 69.4291C44.4602 69.806 43.4849 70 42.5 70C40.5109 70 38.6032 69.2098 37.1967 67.8033C35.7902 66.3968 35 64.4891 35 62.5C35 60.5109 35.7902 58.6032 37.1967 57.1967C38.6032 55.7902 40.5109 55 42.5 55ZM77.5 55C78.4849 55 79.4602 55.194 80.3701 55.5709C81.2801 55.9478 82.1069 56.5003 82.8033 57.1967C83.4997 57.8931 84.0522 58.7199 84.4291 59.6299C84.806 60.5398 85 61.5151 85 62.5C85 63.4849 84.806 64.4602 84.4291 65.3701C84.0522 66.2801 83.4997 67.1069 82.8033 67.8033C82.1069 68.4997 81.2801 69.0522 80.3701 69.4291C79.4602 69.806 78.4849 70 77.5 70C75.5109 70 73.6032 69.2098 72.1967 67.8033C70.7902 66.3968 70 64.4891 70 62.5C70 60.5109 70.7902 58.6032 72.1967 57.1967C73.6032 55.7902 75.5109 55 77.5 55Z" fill="#585858"/>
</svg>
