<svg width="120" height="120" viewBox="0 0 120 120" fill="none" xmlns="http://www.w3.org/2000/svg">
<path d="M60 10C87.615 10 110 32.385 110 60C110 87.615 87.615 110 60 110C32.385 110 10 87.615 10 60C10 32.385 32.385 10 60 10ZM60 20C54.2432 19.9992 48.5541 21.241 43.3213 23.6405C38.0884 26.0401 33.4352 29.5409 29.6795 33.9038C25.9237 38.2666 23.1539 43.3888 21.5594 48.9203C19.9648 54.4518 19.583 60.2624 20.44 65.955L20.5 66.005C21.7767 66.955 23.1517 67.7483 24.625 68.385C29.05 70.3 33.855 70.71 38.055 70.235L39.02 70.1C40.2991 69.8897 41.6099 70.1843 42.676 70.9218C43.742 71.6593 44.48 72.782 44.7342 74.0532C44.9884 75.3243 44.739 76.6444 44.0387 77.7352C43.3383 78.826 42.2416 79.6022 40.98 79.9L40.24 80.03C35.0887 80.7938 29.8341 80.4615 24.82 79.055C28.1865 85.2685 33.1391 90.4793 39.1737 94.1569C45.2083 97.8345 52.1096 99.8478 59.175 99.9917C66.2405 100.136 73.218 98.4051 79.3974 94.9763C85.5767 91.5475 90.7374 86.5428 94.3542 80.4715C97.9709 74.4002 99.9147 67.4791 99.9876 60.4125C100.06 53.3459 98.2599 46.3862 94.7691 40.2416C91.2783 34.097 86.2219 28.9869 80.1146 25.4314C74.0072 21.8759 67.0669 20.0018 60 20ZM42.5 40C44.4891 40 46.3968 40.7902 47.8033 42.1967C49.2098 43.6032 50 45.5109 50 47.5C50 49.4891 49.2098 51.3968 47.8033 52.8033C46.3968 54.2098 44.4891 55 42.5 55C40.5109 55 38.6032 54.2098 37.1967 52.8033C35.7902 51.3968 35 49.4891 35 47.5C35 45.5109 35.7902 43.6032 37.1967 42.1967C38.6032 40.7902 40.5109 40 42.5 40Z" fill="#585858"/>
</svg>
