<svg width="121" height="120" viewBox="0 0 121 120" fill="none" xmlns="http://www.w3.org/2000/svg">
<path d="M35.4499 22.5C32.7899 22.4992 30.1775 23.2058 27.8806 24.5474C25.5836 25.8889 23.6847 27.8171 22.3786 30.1344C21.0724 32.4516 20.4059 35.0745 20.4474 37.7342C20.4889 40.3939 21.237 42.9947 22.6149 45.27C19.1926 45.9313 16.1073 47.7633 13.8886 50.4517C11.67 53.14 10.4565 56.5169 10.4565 60.0025C10.4565 63.4881 11.67 66.865 13.8886 69.5533C16.1073 72.2416 19.1926 74.0737 22.6149 74.735M35.4499 22.5C35.4499 19.1848 36.7668 16.0054 39.111 13.6612C41.4553 11.317 44.6347 10 47.9499 10C51.2651 10 54.4445 11.317 56.7887 13.6612C59.1329 16.0054 60.4499 19.1848 60.4499 22.5M35.4499 22.5C35.4499 26.59 37.4149 30.22 40.4499 32.5M22.6149 74.735C21.2383 77.0102 20.4913 79.6105 20.4504 82.2694C20.4095 84.9284 21.0762 87.5504 22.3823 89.8668C23.6883 92.1833 25.5867 94.1109 27.8829 95.4522C30.1791 96.7935 32.7906 97.5002 35.4499 97.5C35.4499 100.815 36.7668 103.995 39.111 106.339C41.4553 108.683 44.6347 110 47.9499 110C51.2651 110 54.4445 108.683 56.7887 106.339C59.1329 103.995 60.4499 100.815 60.4499 97.5M22.6149 74.735C24.4093 71.7644 27.1782 69.5079 30.4499 68.35M60.4499 22.5V97.5M60.4499 22.5C60.4499 19.1848 61.7668 16.0054 64.111 13.6612C66.4553 11.317 69.6347 10 72.9499 10C76.2651 10 79.4445 11.317 81.7887 13.6612C84.1329 16.0054 85.4499 19.1848 85.4499 22.5C88.1099 22.4992 90.7223 23.2058 93.0192 24.5474C95.3161 25.8889 97.215 27.8171 98.5212 30.1344C99.8274 32.4516 100.494 35.0745 100.452 37.7342C100.411 40.3939 99.6628 42.9947 98.2849 45.27M60.4499 97.5C60.4499 100.815 61.7668 103.995 64.111 106.339C66.4553 108.683 69.6347 110 72.9499 110C76.2651 110 79.4445 108.683 81.7887 106.339C84.1329 103.995 85.4499 100.815 85.4499 97.5M85.4499 97.5C88.1091 97.5002 90.7207 96.7935 93.0169 95.4522C95.3131 94.1109 97.2115 92.1833 98.5175 89.8668C99.8235 87.5504 100.49 84.9284 100.449 82.2694C100.408 79.6105 99.6615 77.0102 98.2849 74.735C101.707 74.0737 104.793 72.2416 107.011 69.5533C109.23 66.865 110.443 63.4881 110.443 60.0025C110.443 56.5169 109.23 53.14 107.011 50.4517C104.793 47.7633 101.707 45.9313 98.2849 45.27M85.4499 97.5C85.4499 93.41 83.4849 89.78 80.4499 87.5M98.2849 45.27C96.4887 48.2369 93.72 50.4897 90.4499 51.645" stroke="#585858" stroke-width="7.5" stroke-linecap="round" stroke-linejoin="round"/>
</svg>
