<svg width="120" height="120" viewBox="0 0 120 120" fill="none" xmlns="http://www.w3.org/2000/svg">
<path d="M60 10C32.385 10 10 32.385 10 60C10 87.615 32.385 110 60 110C87.615 110 110 87.615 110 60C110 32.385 87.615 10 60 10ZM60 20C65.7568 19.9992 71.4459 21.241 76.6787 23.6405C81.9116 26.0401 86.5648 29.5409 90.3205 33.9038C94.0763 38.2666 96.8461 43.3888 98.4406 48.9203C100.035 54.4518 100.417 60.2624 99.56 65.955L99.5 66.005C98.2233 66.955 96.8483 67.7483 95.375 68.385C90.95 70.3 86.145 70.71 81.945 70.235L80.98 70.1C79.7009 69.8897 78.3901 70.1843 77.324 70.9218C76.258 71.6593 75.52 72.782 75.2658 74.0532C75.0116 75.3243 75.261 76.6444 75.9613 77.7352C76.6617 78.826 77.7584 79.6022 79.02 79.9L79.76 80.03C84.9113 80.7938 90.1659 80.4615 95.18 79.055C91.8135 85.2685 86.8609 90.4793 80.8263 94.1569C74.7917 97.8345 67.8904 99.8478 60.825 99.9917C53.7595 100.136 46.782 98.4051 40.6026 94.9763C34.4233 91.5475 29.2626 86.5428 25.6458 80.4715C22.0291 74.4002 20.0853 67.4791 20.0124 60.4125C19.9396 53.3459 21.7401 46.3862 25.2309 40.2416C28.7217 34.097 33.7781 28.9869 39.8854 25.4314C45.9928 21.8759 52.9331 20.0018 60 20ZM77.5 40C75.5109 40 73.6032 40.7902 72.1967 42.1967C70.7902 43.6032 70 45.5109 70 47.5C70 49.4891 70.7902 51.3968 72.1967 52.8033C73.6032 54.2098 75.5109 55 77.5 55C79.4891 55 81.3968 54.2098 82.8033 52.8033C84.2098 51.3968 85 49.4891 85 47.5C85 45.5109 84.2098 43.6032 82.8033 42.1967C81.3968 40.7902 79.4891 40 77.5 40Z" fill="#585858"/>
</svg>
