<svg width="120" height="120" viewBox="0 0 120 120" fill="none" xmlns="http://www.w3.org/2000/svg">
<path fill-rule="evenodd" clip-rule="evenodd" d="M60 10C87.615 10 110 32.385 110 60C110 87.615 87.615 110 60 110C32.385 110 10 87.615 10 60C10 32.385 32.385 10 60 10ZM60 20C49.3913 20 39.2172 24.2143 31.7157 31.7157C24.2143 39.2172 20 49.3913 20 60C20 70.6087 24.2143 80.7828 31.7157 88.2843C39.2172 95.7857 49.3913 100 60 100C70.6087 100 80.7828 95.7857 88.2843 88.2843C95.7857 80.7828 100 70.6087 100 60C100 49.3913 95.7857 39.2172 88.2843 31.7157C80.7828 24.2143 70.6087 20 60 20ZM60 65C66.335 65 72.135 67.365 76.54 71.25C77.5346 72.1279 78.1397 73.3649 78.2222 74.6889C78.3047 76.0129 77.8579 77.3154 76.98 78.31C76.1021 79.3046 74.8651 79.9097 73.5411 79.9922C72.2171 80.0747 70.9146 79.6279 69.92 78.75C67.1803 76.3338 63.653 75.0004 60 75C56.195 75 52.725 76.41 50.08 78.75C49.5875 79.1843 49.0144 79.5174 48.3932 79.7303C47.772 79.9431 47.115 80.0315 46.4596 79.9904C45.8043 79.9493 45.1634 79.7795 44.5737 79.4908C43.9839 79.202 43.4568 78.8 43.0225 78.3075C42.5882 77.815 42.2551 77.2419 42.0422 76.6207C41.8294 75.9995 41.741 75.3425 41.7821 74.6871C41.8232 74.0318 41.993 73.3909 42.2817 72.8012C42.5705 72.2114 42.9725 71.6843 43.465 71.25C48.0317 67.2226 53.9111 65.0002 60 65ZM42.5 40C44.4891 40 46.3968 40.7902 47.8033 42.1967C49.2098 43.6032 50 45.5109 50 47.5C50 49.4891 49.2098 51.3968 47.8033 52.8033C46.3968 54.2098 44.4891 55 42.5 55C40.5109 55 38.6032 54.2098 37.1967 52.8033C35.7902 51.3968 35 49.4891 35 47.5C35 45.5109 35.7902 43.6032 37.1967 42.1967C38.6032 40.7902 40.5109 40 42.5 40ZM77.5 40C79.4891 40 81.3968 40.7902 82.8033 42.1967C84.2098 43.6032 85 45.5109 85 47.5C85 49.4891 84.2098 51.3968 82.8033 52.8033C81.3968 54.2098 79.4891 55 77.5 55C75.5109 55 73.6032 54.2098 72.1967 52.8033C70.7902 51.3968 70 49.4891 70 47.5C70 45.5109 70.7902 43.6032 72.1967 42.1967C73.6032 40.7902 75.5109 40 77.5 40Z" fill="#585858"/>
</svg>
