<svg width="120" height="120" viewBox="0 0 120 120" fill="none" xmlns="http://www.w3.org/2000/svg">
<path d="M70 11C66.7667 10.34 63.4333 10.0067 60 10C32.385 10 10 32.385 10 60C10 87.615 32.385 110 60 110C87.615 110 110 87.615 110 60C110.004 54.9126 109.232 49.8544 107.71 45H97.1C99.0231 49.7669 100.009 54.8598 100.005 60C100.003 68.3417 97.3929 76.4741 92.5402 83.2591C87.6876 90.0441 80.8351 95.1422 72.9417 97.8401C65.0483 100.538 56.5089 100.701 48.5185 98.3051C40.5281 95.9097 33.4865 91.0761 28.3791 84.4807C23.2717 77.8853 20.354 69.8582 20.0344 61.5226C19.7147 53.187 22.0091 44.96 26.5964 37.9929C31.1837 31.0257 37.8344 25.6671 45.6179 22.6668C53.4014 19.6664 61.9282 19.1746 70.005 21.26L70 11Z" fill="#585858"/>
<path d="M40.0151 48.5252C40.0501 49.3102 39.9151 50.8352 39.3251 52.3652C38.7451 53.8652 37.8301 55.1052 36.4751 55.8502C35.1201 56.6002 33.5801 56.7002 32.0051 56.3902C30.717 56.1417 29.4903 55.6422 28.3951 54.9202L24.0801 61.0552C25.5051 62.0552 27.8301 63.2152 30.5601 63.7552C33.3251 64.2952 36.7751 64.2452 40.0901 62.4202C43.4101 60.5952 45.2901 57.7052 46.3151 55.0802C47.1728 52.8788 47.5759 50.5265 47.5001 48.1652L40.0151 48.5252ZM55.5101 46.1952C56.2451 47.7752 57.6801 49.9402 59.7751 51.7702C61.8951 53.6202 64.9101 55.3052 68.6951 55.3802C72.4801 55.4552 75.5551 53.9002 77.7551 52.1352C79.9201 50.3952 81.4451 48.2902 82.2401 46.7402L75.5751 43.3102C74.9389 44.4593 74.0826 45.472 73.0551 46.2902C71.8051 47.2902 70.3951 47.9152 68.8451 47.8852C67.2951 47.8552 65.9151 47.1752 64.7051 46.1202C63.7135 45.2588 62.9014 44.2105 62.3151 43.0352L55.5101 46.1952Z" fill="#585858"/>
<path fill-rule="evenodd" clip-rule="evenodd" d="M81.9601 79.3701L81.1601 75.7051C80.556 72.926 79.4104 70.2931 77.7888 67.9567C76.1672 65.6203 74.1013 63.6262 71.709 62.0883C69.3168 60.5503 66.645 59.4986 63.8463 58.9932C61.0475 58.4877 58.1767 58.5385 55.3976 59.1426C49.7849 60.3626 44.8868 63.7622 41.7807 68.5937C38.6747 73.4251 37.6151 79.2925 38.8351 84.9051L39.6351 88.5701L81.9601 79.3701ZM67.6601 68.3951C69.7401 69.7351 71.4151 71.5851 72.5451 73.7451L45.8651 79.5401C45.9968 77.0655 46.7762 74.6688 48.1251 72.59C49.4741 70.5112 51.3453 68.8231 53.5516 67.6946C55.7579 66.5662 58.2219 66.0369 60.697 66.1599C63.172 66.2828 65.5764 67.0536 67.6601 68.3951Z" fill="#585858"/>
<path d="M80 11.25C79.0054 11.25 78.0516 11.6451 77.3484 12.3483C76.6451 13.0516 76.25 14.0054 76.25 15C76.25 15.9946 76.6451 16.9484 77.3484 17.6517C78.0516 18.3549 79.0054 18.75 80 18.75H90.95L78.2 31.495C75.525 34.17 77.42 38.75 81.205 38.75H100C100.995 38.75 101.948 38.3549 102.652 37.6517C103.355 36.9484 103.75 35.9946 103.75 35C103.75 34.0054 103.355 33.0516 102.652 32.3483C101.948 31.6451 100.995 31.25 100 31.25H89.05L101.8 18.505C104.475 15.83 102.58 11.25 98.795 11.25H80Z" fill="#585858"/>
</svg>
