<svg width="120" height="120" viewBox="0 0 120 120" fill="none" xmlns="http://www.w3.org/2000/svg">
<path d="M45 45H45.05M75 45H75.05M15 60C15 65.9095 16.164 71.7611 18.4254 77.2208C20.6869 82.6804 24.0016 87.6412 28.1802 91.8198C32.3588 95.9984 37.3196 99.3131 42.7792 101.575C48.2389 103.836 54.0905 105 60 105C65.9095 105 71.7611 103.836 77.2208 101.575C82.6804 99.3131 87.6412 95.9984 91.8198 91.8198C95.9984 87.6412 99.3131 82.6804 101.575 77.2208C103.836 71.7611 105 65.9095 105 60C105 54.0905 103.836 48.2389 101.575 42.7792C99.3131 37.3196 95.9984 32.3588 91.8198 28.1802C87.6412 24.0016 82.6804 20.6869 77.2208 18.4254C71.7611 16.164 65.9095 15 60 15C54.0905 15 48.2389 16.164 42.7792 18.4254C37.3196 20.6869 32.3588 24.0016 28.1802 28.1802C24.0016 32.3588 20.6869 37.3196 18.4254 42.7792C16.164 48.2389 15 54.0905 15 60Z" stroke="#585858" stroke-width="10" stroke-linecap="round" stroke-linejoin="round"/>
<path d="M50 75C50 77.6522 51.0536 80.1957 52.9289 82.0711C54.8043 83.9464 57.3478 85 60 85C62.6522 85 65.1957 83.9464 67.0711 82.0711C68.9464 80.1957 70 77.6522 70 75C70 72.3478 68.9464 69.8043 67.0711 67.9289C65.1957 66.0536 62.6522 65 60 65C57.3478 65 54.8043 66.0536 52.9289 67.9289C51.0536 69.8043 50 72.3478 50 75Z" stroke="#585858" stroke-width="10" stroke-linecap="round" stroke-linejoin="round"/>
</svg>
