<svg width="120" height="120" viewBox="0 0 120 120" fill="none" xmlns="http://www.w3.org/2000/svg">
<path fill-rule="evenodd" clip-rule="evenodd" d="M60 10C87.615 10 110 32.385 110 60C110 87.615 87.615 110 60 110C32.385 110 10 87.615 10 60C10 32.385 32.385 10 60 10ZM60 20C49.3913 20 39.2172 24.2143 31.7157 31.7157C24.2143 39.2172 20 49.3913 20 60C20 70.6087 24.2143 80.7828 31.7157 88.2843C39.2172 95.7857 49.3913 100 60 100C70.6087 100 80.7828 95.7857 88.2843 88.2843C95.7857 80.7828 100 70.6087 100 60C100 49.3913 95.7857 39.2172 88.2843 31.7157C80.7828 24.2143 70.6087 20 60 20ZM65 60C66.3261 60 67.5979 60.5268 68.5355 61.4645C69.4732 62.4021 70 63.6739 70 65C70 66.3261 69.4732 67.5979 68.5355 68.5355C67.5979 69.4732 66.3261 70 65 70H55C53.6739 70 52.4021 69.4732 51.4645 68.5355C50.5268 67.5979 50 66.3261 50 65C50 63.6739 50.5268 62.4021 51.4645 61.4645C52.4021 60.5268 53.6739 60 55 60H65ZM42.5 35C44.4891 35 46.3968 35.7902 47.8033 37.1967C49.2098 38.6032 50 40.5109 50 42.5C50 44.4891 49.2098 46.3968 47.8033 47.8033C46.3968 49.2098 44.4891 50 42.5 50C40.5109 50 38.6032 49.2098 37.1967 47.8033C35.7902 46.3968 35 44.4891 35 42.5C35 40.5109 35.7902 38.6032 37.1967 37.1967C38.6032 35.7902 40.5109 35 42.5 35ZM77.5 35C79.4891 35 81.3968 35.7902 82.8033 37.1967C84.2098 38.6032 85 40.5109 85 42.5C85 44.4891 84.2098 46.3968 82.8033 47.8033C81.3968 49.2098 79.4891 50 77.5 50C75.5109 50 73.6032 49.2098 72.1967 47.8033C70.7902 46.3968 70 44.4891 70 42.5C70 40.5109 70.7902 38.6032 72.1967 37.1967C73.6032 35.7902 75.5109 35 77.5 35Z" fill="#585858"/>
</svg>
